<svg width="726" height="279" viewBox="0 0 726 279" fill="none" xmlns="http://www.w3.org/2000/svg">
<path d="M174.972 25.3433C174.972 25.3433 177.645 23.2154 180.169 25.8884L189.426 35.7883C189.426 35.7883 191.554 37.9173 189.426 41.9273L177.149 70.1933C177.149 70.1933 175.961 72.5694 172.694 74.9454L159.626 83.2613C159.626 83.2613 156.953 84.9773 152.861 81.4793L143.984 72.3713C143.984 72.3713 142.796 72.1744 143.654 67.0254C143.654 67.0254 152.564 43.2633 174.972 25.3433Z" fill="#624C9F"/>
<path d="M200.119 38.4121L223.979 36.3331C223.979 36.3331 226.355 35.3431 229.325 37.9171L248.532 60.7861C248.532 60.7861 250.215 63.5592 248.532 68.1132L241.008 84.8441C241.008 84.8441 239.424 88.3092 234.375 88.7052L202.595 93.9522C202.595 93.9522 199.823 94.1502 196.259 91.1802L183.191 76.7262C183.191 76.7262 181.607 73.3602 183.191 69.3012L194.774 41.6781C194.774 41.6781 195.763 37.7191 200.119 38.4121Z" fill="#624C9F"/>
<path d="M201.802 99.7942L236.652 93.9562C236.652 93.9562 241.305 93.8541 243.582 96.3291L255.165 109.596C255.165 109.596 257.343 111.972 255.165 118.209L245.661 146.239C245.661 146.239 244.473 150.583 236.157 150.88L214.871 152.464C214.871 152.464 213.485 152.761 211.01 150.386L191.11 128.011C191.11 128.011 188.635 125.437 191.605 120.487L199.229 102.567C199.229 102.567 199.921 100.983 201.802 99.7942Z" fill="#624C9F"/>
<path d="M162.498 89.7952C162.498 89.7952 165.468 104.349 166.359 106.13C166.359 106.13 168.735 114.743 183.388 118.901C183.388 118.901 186.556 121.772 182.893 122.565L165.963 119.397C165.963 119.397 162.003 118.407 161.31 110.684L159.429 91.6752C159.429 91.6752 160.716 86.3292 162.498 89.7952Z" fill="#FAB815"/>
<path d="M143.343 79.7963L152.399 88.0134C152.399 88.0134 154.478 91.0824 154.379 96.5284C154.379 96.5284 156.161 115.635 157.052 117.913C157.052 117.913 157.647 118.507 156.162 124.249L152.894 136.822C152.894 136.822 133.885 124.843 140.915 80.6873C140.915 80.6873 141.862 78.4523 143.343 79.7963Z" fill="#624C9F"/>
<path d="M165.072 124.743L181.011 127.812C181.011 127.812 184.179 127.614 187.446 132.069C187.446 132.069 204.376 152.96 205.96 153.949C205.96 153.949 207.643 155.731 205.96 160.087C205.96 160.087 201.703 170.285 201.703 170.78C201.703 170.78 200.515 173.255 195.663 171.671C195.663 171.671 169.343 161.435 158.141 145.831C158.141 145.831 156.755 144.544 158.141 138.307C158.141 138.307 160.616 128.802 161.705 125.536C161.705 125.536 162.233 124.196 165.072 124.743Z" fill="#624C9F"/>
<path d="M194.477 13.9582C194.477 13.9582 334.27 -51.3848 423.374 100.686C423.374 100.686 369.67 21.8783 256.134 42.8683C256.134 42.8683 283.184 26.6312 342.587 34.5522C342.587 34.5522 287.144 -1.48678 194.477 13.9582Z" fill="#FAB815"/>
<path d="M259.423 72.5686C259.423 72.5686 377.039 22.6726 439.61 148.407C439.61 148.407 398.424 80.8856 308.925 97.1216C308.925 97.1216 353.675 84.0577 376.248 93.9557C376.248 93.9557 340.21 59.8966 259.423 72.5686Z" fill="#FAB815"/>
<path d="M413.472 141.475C413.472 141.475 370.306 92.7653 303.38 119.695C303.38 119.695 332.422 115.998 340.077 119.035C340.077 119.035 324.105 121.939 298.496 139.627C298.496 139.627 266.154 172.167 221.009 174.543C221.009 174.543 257.583 187.826 295.658 154.346C295.658 154.346 321.795 133.754 337.437 129.002C337.437 129.002 367.733 115.932 413.472 141.475Z" fill="#FAB815"/>
<path d="M49.595 230.495H29.575L22.113 213.569H18.2V230.495H0V173.62H28.665C41.708 173.62 48.23 180.263 48.23 193.549C48.23 202.65 45.409 208.655 39.767 211.568L49.595 230.495ZM18.2 188.18V199.555H22.386C24.57 199.555 26.162 199.327 27.163 198.873C28.164 198.418 28.664 197.371 28.664 195.733V192.002C28.664 190.364 28.164 189.317 27.163 188.862C26.162 188.407 24.57 188.179 22.386 188.179L18.2 188.18Z" fill="#624C9F"/>
<path d="M105.558 230.495H85.5379L78.0759 213.569H74.1629V230.495H55.9629V173.62H84.6279C97.6709 173.62 104.193 180.263 104.193 193.549C104.193 202.65 101.372 208.655 95.7299 211.568L105.558 230.495ZM74.1629 188.18V199.555H78.3489C80.5329 199.555 82.1249 199.327 83.1259 198.873C84.1269 198.418 84.6269 197.371 84.6269 195.733V192.002C84.6269 190.364 84.1269 189.317 83.1259 188.862C82.1249 188.407 80.5329 188.179 78.3489 188.179L74.1629 188.18Z" fill="#624C9F"/>
<path d="M159.247 209.383H143.777V230.495H125.577V173.62H162.887L160.612 188.18H143.777V195.825H159.247V209.383Z" fill="#624C9F"/>
<path d="M170.394 225.9C166.602 221.927 164.706 215.876 164.706 207.746C164.706 199.617 166.602 193.565 170.394 189.592C174.185 185.619 180.327 183.631 188.822 183.631C197.315 183.631 203.457 185.619 207.249 189.592C211.04 193.566 212.937 199.617 212.937 207.746C212.937 215.876 211.04 221.928 207.249 225.9C203.457 229.875 197.314 231.861 188.822 231.861C180.327 231.86 174.185 229.874 170.394 225.9ZM184.272 200.738V218.574H187.093C189.277 218.574 190.869 218.346 191.87 217.891C192.871 217.436 193.371 216.389 193.371 214.751V196.915H190.55C188.366 196.915 186.773 197.143 185.772 197.598C184.771 198.053 184.272 199.101 184.272 200.738Z" fill="#FAB815"/>
<path d="M224.084 225.9C220.292 221.927 218.396 215.876 218.396 207.746C218.396 199.617 220.292 193.565 224.084 189.592C227.875 185.619 234.017 183.631 242.512 183.631C251.005 183.631 257.147 185.619 260.939 189.592C264.73 193.566 266.627 199.617 266.627 207.746C266.627 215.876 264.73 221.928 260.939 225.9C257.147 229.875 251.004 231.861 242.512 231.861C234.017 231.86 227.875 229.874 224.084 225.9ZM237.962 200.738V218.574H240.783C242.967 218.574 244.559 218.346 245.56 217.891C246.561 217.436 247.061 216.389 247.061 214.751V196.915H244.24C242.056 196.915 240.463 197.143 239.462 197.598C238.461 198.053 237.962 199.101 237.962 200.738Z" fill="#FAB815"/>
<path d="M271.176 196.734V184.995H275.726V177.715L293.926 173.165V184.995H300.205V196.734H293.926V217.482C295.503 217.786 297.293 217.998 299.295 218.119L298.476 231.496C290.163 231.496 284.765 231.041 282.278 230.131C279.184 229.039 277.242 227.583 276.454 225.763C275.968 224.671 275.726 223.398 275.726 221.942V196.735L271.176 196.734Z" fill="#624C9F"/>
<path d="M307.03 228.22V171.345L325.23 169.981V185.086C327.535 184.116 330.554 183.63 334.285 183.63C338.016 183.63 341.215 184.328 343.885 185.723C346.554 187.119 348.586 189.031 349.982 191.456C352.59 196.006 353.895 201.436 353.895 207.745C353.895 216.299 351.923 222.457 347.98 226.218C344.036 229.981 338.061 231.861 330.053 231.861C322.045 231.86 314.37 230.646 307.03 228.22ZM325.23 200.283V218.574H328.051C330.235 218.574 331.828 218.346 332.829 217.891C333.83 217.436 334.33 216.389 334.33 214.751V196.915H331.509C330.174 196.915 329.112 196.977 328.324 197.097C327.534 197.22 326.837 197.538 326.231 198.053C325.624 198.569 325.29 199.314 325.23 200.283Z" fill="#624C9F"/>
<path d="M382.741 183.63C397.301 183.63 404.581 188.635 404.581 198.646V230.496H395.481L390.294 225.309C388.534 227.372 386.138 228.98 383.105 230.131C380.071 231.283 377.204 231.86 374.505 231.86C371.805 231.86 369.637 231.646 367.999 231.222C366.361 230.797 364.753 230.071 363.176 229.038C359.718 226.854 357.989 222.79 357.989 216.844C357.989 205.924 366.239 200.464 382.741 200.464H386.381V197.189C384.439 197.068 382.832 197.006 381.558 197.006C374.702 197.006 368.818 197.825 363.904 199.463L361.72 186.45C367.785 184.571 374.793 183.63 382.741 183.63ZM376.371 214.843V218.574H380.102C382.771 218.574 384.484 218.271 385.244 217.664C386.002 217.059 386.381 216.269 386.381 215.298V211.022H382.65C380.466 211.022 378.874 211.25 377.873 211.705C376.871 212.158 376.371 213.205 376.371 214.843Z" fill="#624C9F"/>
<path d="M430.97 169.981V217.483C432.911 217.846 434.397 218.06 435.429 218.12L434.611 231.497C426.843 231.497 421.718 231.042 419.232 230.132C416.137 228.981 414.226 227.525 413.498 225.764C413.012 224.672 412.77 223.399 412.77 221.943V171.346L430.97 169.981Z" fill="#624C9F"/>
<path d="M459.088 169.981V217.483C461.028 217.846 462.515 218.06 463.547 218.12L462.728 231.497C454.962 231.497 449.836 231.042 447.349 230.132C444.255 228.981 442.344 227.525 441.617 225.764C441.131 224.672 440.888 223.399 440.888 221.943V171.346L459.088 169.981Z" fill="#624C9F"/>
<path d="M480.38 229.494L482.929 214.479C488.509 215.875 493.531 216.572 497.99 216.572C502.449 216.572 506.043 216.389 508.773 216.026V211.476L500.584 210.747C493.182 210.08 488.101 208.306 485.341 205.424C482.58 202.543 481.201 198.28 481.201 192.638C481.201 184.873 482.884 179.534 486.251 176.622C489.618 173.71 495.336 172.254 503.404 172.254C511.472 172.254 518.752 173.014 525.244 174.529L522.969 189.089C517.328 188.179 512.807 187.725 509.41 187.725C506.012 187.725 503.131 187.876 500.765 188.179V192.638L507.317 193.276C515.263 194.065 520.754 195.961 523.789 198.964C526.821 201.967 528.338 206.139 528.338 211.477C528.338 215.298 527.822 218.529 526.791 221.168C525.76 223.807 524.531 225.809 523.105 227.174C521.679 228.539 519.662 229.585 517.054 230.314C514.445 231.042 512.154 231.481 510.183 231.633C508.211 231.783 505.587 231.861 502.312 231.861C494.425 231.86 487.114 231.071 480.38 229.494Z" fill="#624C9F"/>
<path d="M553.362 202.467V230.495H535.161V171.345L553.362 169.981V186.633C557.243 184.631 561.551 183.63 566.284 183.63C571.015 183.63 574.595 184.556 577.022 186.405C579.448 188.257 580.661 190.819 580.661 194.094V230.494H562.462V198.644H559.641C557.457 198.644 555.865 198.872 554.864 199.326C553.862 199.782 553.362 200.829 553.362 202.467Z" fill="#624C9F"/>
<path d="M590.352 182.083C588.987 181.053 588.304 179.171 588.304 176.441C588.304 173.711 588.987 171.799 590.352 170.708C591.717 169.617 594.415 169.07 598.451 169.07C602.485 169.07 605.185 169.616 606.55 170.708C607.915 171.8 608.598 173.711 608.598 176.441C608.598 179.17 607.915 181.052 606.55 182.083C605.186 183.115 602.486 183.63 598.451 183.63C594.416 183.63 591.718 183.115 590.352 182.083ZM589.306 230.495V187.27L607.506 184.995V230.495H589.306Z" fill="#624C9F"/>
<path d="M616.604 184.995H625.704L630.71 190.091C634.288 186.816 638.777 184.662 644.178 183.63L645.27 200.829C643.814 200.891 641.917 201.254 639.582 201.921C637.246 202.59 635.653 203.439 634.805 204.469V230.495H616.605V184.995H616.604Z" fill="#624C9F"/>
<path d="M647.999 196.734V184.995H652.55V177.715L670.749 173.165V184.995H677.028V196.734H670.749V217.482C672.327 217.786 674.116 217.998 676.118 218.119L675.3 231.496C666.987 231.496 661.589 231.041 659.102 230.131C656.008 229.039 654.066 227.583 653.279 225.763C652.793 224.671 652.55 223.398 652.55 221.942V196.735L647.999 196.734Z" fill="#624C9F"/>
<path d="M688.176 186.816C692.089 184.693 697.443 183.63 704.238 183.63C711.031 183.63 717.281 184.571 722.984 186.451L720.89 198.827C716.16 197.493 711.427 196.825 706.695 196.825C705.238 196.825 703.175 196.947 700.507 197.189V200.101C710.335 200.101 717.007 201.556 720.527 204.468C722.285 205.924 723.529 207.517 724.257 209.246C724.986 210.975 725.349 213.067 725.349 215.524C725.349 217.981 725.062 220.181 724.486 222.122C723.908 224.064 723.029 225.611 721.847 226.763C720.663 227.916 719.435 228.857 718.161 229.584C716.886 230.313 715.218 230.827 713.155 231.131C709.938 231.616 706.208 231.86 701.962 231.86C694.439 231.86 687.644 230.979 681.578 229.22L683.852 216.298C688.949 217.876 694.468 218.664 700.415 218.664C703.145 218.664 705.632 218.543 707.878 218.3V215.388C698.17 215.388 691.482 214.115 687.812 211.567C684.141 209.019 682.306 204.788 682.306 198.873C682.306 192.958 684.263 188.94 688.176 186.816Z" fill="#624C9F"/>
<path d="M31.1141 260.712C30.5291 262.332 29.6741 265.122 28.3241 269.126C27.2441 272.276 26.2991 274.932 25.1291 277.901C24.4541 277.946 23.6441 277.946 22.5191 277.946C20.9891 273.581 19.4592 269.081 18.1542 264.311H17.8841C16.3991 268.271 13.7442 274.526 12.1692 277.901C11.5392 277.946 10.7291 277.946 9.73912 277.946C8.56912 274.166 7.71412 270.971 6.99412 268.271C6.18412 265.256 5.55412 262.736 5.05912 260.891C5.01412 260.801 4.96915 260.711 4.83415 260.711L2.76414 260.576C2.71914 259.946 2.76414 259.225 2.76414 258.64C3.84414 258.64 5.23914 258.64 6.63414 258.64C8.38914 258.64 10.1891 258.64 11.8081 258.64C11.8081 259.225 11.8082 259.946 11.7632 260.62L8.61314 260.665C8.79314 261.654 9.37812 264.354 9.96312 267.055C10.5031 269.664 11.0881 272.14 11.5381 273.94L11.7632 273.985C13.0682 270.61 15.5432 264.131 17.2082 259.81C17.6582 259.765 18.7832 259.765 19.8182 259.765C20.8082 262.96 23.1481 270.789 24.1831 274.03H24.4532C25.2182 271.51 25.6681 270.025 26.3431 267.551C27.1081 264.851 27.6931 262.466 28.0531 260.891C28.0981 260.756 28.0531 260.711 27.9181 260.711L25.3542 260.621C25.3542 259.946 25.3992 259.225 25.3992 258.641C26.7492 258.641 28.4142 258.641 29.9432 258.641C31.0682 258.641 32.1932 258.596 33.1382 258.596C33.1832 259.226 33.1381 259.901 33.0931 260.576L31.1141 260.712Z" fill="black"/>
<path d="M72.3778 260.712C71.7928 262.332 70.9378 265.122 69.5878 269.126C68.5078 272.276 67.5629 274.932 66.3929 277.901C65.7179 277.946 64.9078 277.946 63.7828 277.946C62.2528 273.581 60.7228 269.081 59.4178 264.311H59.1479C57.6629 268.271 55.0078 274.526 53.4328 277.901C52.8028 277.946 51.9928 277.946 51.0028 277.946C49.8328 274.166 48.9779 270.971 48.2579 268.271C47.4479 265.256 46.8179 262.736 46.3229 260.891C46.2779 260.801 46.2328 260.711 46.0978 260.711L44.0278 260.576C43.9828 259.946 44.0278 259.225 44.0278 258.64C45.1078 258.64 46.5029 258.64 47.8979 258.64C49.6529 258.64 51.4528 258.64 53.0718 258.64C53.0718 259.225 53.0718 259.946 53.0268 260.62L49.8768 260.665C50.0568 261.654 50.6418 264.354 51.2268 267.055C51.7668 269.664 52.3519 272.14 52.8019 273.94L53.0268 273.985C54.3318 270.61 56.8068 264.131 58.4718 259.81C58.9218 259.765 60.0468 259.765 61.0818 259.765C62.0718 262.96 64.4118 270.789 65.4468 274.03H65.7168C66.4818 271.51 66.9319 270.025 67.6069 267.551C68.3719 264.851 68.9568 262.466 69.3168 260.891C69.3618 260.756 69.3169 260.711 69.1819 260.711L66.6178 260.621C66.6178 259.946 66.6628 259.225 66.6628 258.641C68.0128 258.641 69.6778 258.641 71.2068 258.641C72.3318 258.641 73.4568 258.596 74.4018 258.596C74.4468 259.226 74.4019 259.901 74.3569 260.576L72.3778 260.712Z" fill="black"/>
<path d="M113.643 260.712C113.058 262.332 112.203 265.122 110.853 269.126C109.773 272.276 108.828 274.932 107.658 277.901C106.983 277.946 106.173 277.946 105.048 277.946C103.518 273.581 101.988 269.081 100.683 264.311H100.413C98.9284 268.271 96.2735 274.526 94.6985 277.901C94.0685 277.946 93.2585 277.946 92.2685 277.946C91.0985 274.166 90.2435 270.971 89.5235 268.271C88.7135 265.256 88.0834 262.736 87.5884 260.891C87.5434 260.801 87.4984 260.711 87.3634 260.711L85.2934 260.576C85.2484 259.946 85.2934 259.225 85.2934 258.64C86.3734 258.64 87.7684 258.64 89.1634 258.64C90.9184 258.64 92.7184 258.64 94.3374 258.64C94.3374 259.225 94.3375 259.946 94.2925 260.62L91.1424 260.665C91.3224 261.654 91.9075 264.354 92.4925 267.055C93.0325 269.664 93.6174 272.14 94.0674 273.94L94.2925 273.985C95.5975 270.61 98.0725 264.131 99.7375 259.81C100.187 259.765 101.312 259.765 102.347 259.765C103.337 262.96 105.677 270.789 106.712 274.03H106.982C107.747 271.51 108.197 270.025 108.872 267.551C109.637 264.851 110.222 262.466 110.582 260.891C110.627 260.756 110.582 260.711 110.447 260.711L107.883 260.621C107.883 259.946 107.928 259.225 107.928 258.641C109.278 258.641 110.943 258.641 112.472 258.641C113.597 258.641 114.722 258.596 115.667 258.596C115.712 259.226 115.667 259.901 115.622 260.576L113.643 260.712Z" fill="black"/>
<path d="M132.318 275.426C132.318 276.687 131.418 277.902 129.933 277.902C128.403 277.902 127.368 276.867 127.368 275.426C127.368 274.301 128.178 272.906 129.888 272.906C131.688 272.906 132.318 274.392 132.318 275.426Z" fill="black"/>
<path d="M147.798 275.607L150.408 275.47C150.498 275.47 150.543 275.38 150.543 275.335C150.543 270.881 150.543 265.526 150.543 261.207L147.258 261.161C147.258 260.576 147.303 259.901 147.303 259.316C149.103 259.046 153.287 258.146 153.557 258.146C153.602 258.146 153.647 258.19 153.647 258.281C153.692 259.451 153.737 261.927 153.827 264.311H154.007C156.572 259.316 158.192 258.146 160.082 258.146C161.117 258.146 162.152 258.372 162.782 258.641C162.782 259.586 162.062 261.52 161.522 261.97C161.117 261.88 160.037 261.61 159.227 261.61C158.777 261.61 158.327 261.791 157.697 262.286C156.842 262.961 155.897 264.266 154.727 266.472C154.232 267.507 154.007 269.125 153.962 270.611C153.962 272.186 153.917 273.987 153.917 275.426L158.191 275.562C158.191 276.147 158.191 276.866 158.101 277.496C156.481 277.496 154.366 277.496 152.386 277.496C150.856 277.496 149.146 277.542 147.706 277.542C147.708 276.911 147.753 276.192 147.798 275.607Z" fill="black"/>
<path d="M176.013 275.607L178.623 275.47C178.713 275.47 178.758 275.38 178.758 275.335C178.758 270.881 178.758 265.526 178.758 261.207L175.473 261.161C175.473 260.576 175.518 259.901 175.518 259.316C177.318 259.046 181.502 258.146 181.772 258.146C181.817 258.146 181.862 258.19 181.862 258.281C181.907 259.451 181.952 261.927 182.042 264.311H182.222C184.787 259.316 186.407 258.146 188.297 258.146C189.332 258.146 190.367 258.372 190.997 258.641C190.997 259.586 190.277 261.52 189.737 261.97C189.332 261.88 188.252 261.61 187.442 261.61C186.992 261.61 186.542 261.791 185.912 262.286C185.057 262.961 184.112 264.266 182.942 266.472C182.447 267.507 182.222 269.125 182.177 270.611C182.177 272.186 182.132 273.987 182.132 275.426L186.406 275.562C186.406 276.147 186.406 276.866 186.316 277.496C184.696 277.496 182.581 277.496 180.601 277.496C179.071 277.496 177.361 277.542 175.921 277.542C175.923 276.911 175.968 276.192 176.013 275.607Z" fill="black"/>
<path d="M215.073 275.517C215.073 276.192 215.073 276.867 215.028 277.496C213.318 277.496 211.068 277.496 208.953 277.496C207.603 277.496 205.893 277.541 204.498 277.541C204.453 276.866 204.498 276.236 204.543 275.562L207.108 275.426C207.198 275.426 207.288 275.336 207.288 275.246C207.288 270.476 207.288 265.571 207.288 260.981C206.253 260.981 204.993 260.981 203.868 260.981C203.868 260.216 203.913 259.407 203.958 258.731C204.993 258.686 206.028 258.641 207.018 258.641C207.153 258.641 207.243 258.506 207.243 258.327C207.288 253.422 207.918 251.802 209.673 249.912C212.058 247.303 214.443 246.672 216.513 246.672C217.683 246.672 218.718 246.943 219.393 247.212C219.393 247.978 218.583 249.643 217.953 250.137C217.638 250.002 216.018 249.462 214.938 249.462C214.038 249.462 212.778 249.867 212.103 250.813C211.023 252.208 210.708 253.422 210.753 258.642C212.913 258.642 215.163 258.597 217.278 258.597C217.278 259.317 217.188 260.262 217.143 260.937C215.388 260.937 212.688 260.937 210.753 260.982C210.708 265.032 210.708 270.792 210.663 275.426L215.073 275.517Z" fill="black"/>
<path d="M232.534 275.831C230.554 274.031 229.519 271.602 229.519 268.451C229.519 265.257 230.734 262.332 233.344 260.217C235.053 258.822 237.348 258.146 239.509 258.146C241.624 258.146 243.469 258.642 245.089 259.857C247.339 261.567 248.599 264.086 248.599 267.641C248.599 271.241 247.114 274.211 244.729 276.057C243.019 277.407 241.129 277.947 238.744 277.947C236.179 277.946 234.019 277.181 232.534 275.831ZM242.793 274.482C244.278 272.862 244.818 270.836 244.818 267.822C244.818 265.302 244.278 263.232 243.018 261.838C241.893 260.623 240.723 260.172 239.193 260.172C237.933 260.172 236.448 260.623 235.413 261.703C233.973 263.187 233.343 265.348 233.343 268.093C233.343 271.018 233.973 272.997 235.413 274.483C236.313 275.427 237.573 275.967 239.013 275.967C240.409 275.966 241.759 275.562 242.793 274.482Z" fill="black"/>
<path d="M266.102 275.831C264.122 274.031 263.087 271.602 263.087 268.451C263.087 265.257 264.302 262.332 266.912 260.217C268.621 258.822 270.916 258.146 273.077 258.146C275.192 258.146 277.037 258.642 278.657 259.857C280.907 261.567 282.167 264.086 282.167 267.641C282.167 271.241 280.682 274.211 278.297 276.057C276.587 277.407 274.697 277.947 272.312 277.947C269.747 277.946 267.587 277.181 266.102 275.831ZM276.362 274.482C277.847 272.862 278.387 270.836 278.387 267.822C278.387 265.302 277.847 263.232 276.587 261.838C275.462 260.623 274.292 260.172 272.762 260.172C271.502 260.172 270.017 260.623 268.982 261.703C267.542 263.187 266.912 265.348 266.912 268.093C266.912 271.018 267.542 272.997 268.982 274.483C269.882 275.427 271.142 275.967 272.582 275.967C273.977 275.966 275.327 275.562 276.362 274.482Z" fill="black"/>
<path d="M300.437 276.732C299.222 275.652 299.177 274.617 299.177 273.267C299.177 270.927 299.222 267.282 299.267 266.157C299.267 264.762 299.312 262.107 299.312 260.937C298.412 260.937 297.242 260.937 296.208 260.937C296.208 260.217 296.208 259.408 296.253 258.732C297.243 258.732 298.233 258.687 299.133 258.642C299.268 258.642 299.403 258.507 299.448 258.328C299.448 257.068 299.538 255.493 299.583 254.188C300.753 253.422 302.643 252.658 302.778 252.658C302.868 252.658 302.913 252.703 302.913 252.793C302.868 254.323 302.823 256.753 302.823 258.643C305.118 258.643 307.593 258.643 309.887 258.598C309.887 259.409 309.797 260.263 309.752 260.938C307.682 260.938 305.297 260.938 302.732 260.938C302.732 261.613 302.732 264.539 302.732 265.978C302.687 267.823 302.687 270.523 302.687 272.728C302.687 274.663 304.037 275.518 305.612 275.518C306.647 275.518 308.357 275.203 309.932 274.797C310.067 275.427 310.157 276.148 310.247 276.777C308.132 277.542 305.567 277.902 303.948 277.902C302.957 277.901 301.652 277.857 300.437 276.732Z" fill="black"/>
<path d="M324.961 272.456C325.006 265.212 325.006 256.392 325.006 249.147L321.721 249.012C321.721 248.381 321.721 247.706 321.766 247.121C323.656 246.896 328.066 245.996 328.426 245.996C328.471 245.996 328.516 246.041 328.516 246.132C328.516 250.136 328.471 255.536 328.381 260.351L328.606 260.396C332.836 258.327 333.781 258.146 335.491 258.146C339.676 258.146 342.736 262.466 342.736 266.516C342.736 268.766 342.466 270.386 341.656 272.321C341.026 273.716 339.721 275.516 338.011 276.641C337.066 277.271 335.266 277.946 332.881 277.946C330.856 277.946 329.101 277.316 327.796 276.55L326.761 278.08C326.221 278.08 325.366 277.9 324.646 277.72C324.781 276.551 324.961 274.526 324.961 272.456ZM337.921 262.962C337.111 261.611 335.716 260.847 334.231 260.847C332.476 260.847 330.361 261.567 328.426 262.962C328.426 266.337 328.381 270.116 328.381 273.446C328.381 274.571 330.586 275.831 332.926 275.831C334.456 275.831 335.896 275.291 336.976 274.166C338.281 272.816 339.046 270.656 339.046 268.047C339.045 265.661 338.73 264.312 337.921 262.962Z" fill="black"/>
<path d="M368.16 275.921C364.875 277.631 363.21 277.946 361.635 277.946C359.385 277.946 356.506 276.101 356.506 273.536C356.506 271.016 359.296 267.462 365.28 267.462C366.855 267.507 367.935 267.506 368.385 267.506C368.52 262.735 367.395 260.847 364.65 260.847C362.76 260.847 360.78 262.152 359.25 263.817C358.755 263.322 358.17 262.692 357.675 262.107C359.61 260.217 362.13 258.146 365.684 258.146C369.014 258.146 371.714 260.442 371.714 265.437C371.714 267.552 371.669 272.996 371.624 274.885C371.624 275.335 371.759 275.562 372.029 275.562L375.044 275.47C375.089 276.01 375.089 276.731 375.044 277.361C374.459 277.541 371.894 277.947 369.869 277.947C369.419 277.542 368.969 276.822 368.384 275.922L368.16 275.921ZM363.166 275.562C364.471 275.562 366.451 274.931 368.161 273.715C368.296 273.67 368.296 273.581 368.296 273.357C368.296 272.502 368.296 270.746 368.296 269.531C368.071 269.486 367.126 269.442 365.821 269.442C361.816 269.442 360.196 271.106 360.196 273.13C360.196 274.57 361.411 275.562 363.166 275.562Z" fill="black"/>
<path d="M387.151 275.562L390.166 275.426C390.256 275.426 390.301 275.336 390.301 275.246C390.346 267.326 390.346 256.932 390.346 249.058L386.746 248.967C386.746 248.337 386.746 247.662 386.791 247.032C388.726 246.852 393.406 245.997 393.766 245.997C393.856 245.997 393.901 246.042 393.901 246.178C393.856 254.323 393.721 266.472 393.721 275.426L397.231 275.517C397.231 276.147 397.231 276.867 397.186 277.496C395.701 277.496 393.856 277.496 391.966 277.496C390.346 277.496 388.591 277.541 387.106 277.541C387.106 276.911 387.106 276.192 387.151 275.562Z" fill="black"/>
<path d="M409.335 275.562L412.35 275.426C412.44 275.426 412.485 275.336 412.485 275.246C412.53 267.326 412.53 256.932 412.53 249.058L408.93 248.967C408.93 248.337 408.93 247.662 408.975 247.032C410.91 246.852 415.59 245.997 415.95 245.997C416.04 245.997 416.085 246.042 416.085 246.178C416.04 254.323 415.905 266.472 415.905 275.426L419.415 275.517C419.415 276.147 419.415 276.867 419.37 277.496C417.886 277.496 416.04 277.496 414.15 277.496C412.53 277.496 410.775 277.541 409.29 277.541C409.29 276.911 409.29 276.192 409.335 275.562Z" fill="black"/>
<path d="M435.21 274.391C435.3 274.616 435.345 274.751 435.57 274.932C436.245 275.426 437.46 275.875 438.674 275.875C439.979 275.875 441.104 275.786 442.049 275.156C442.725 274.661 443.354 273.895 443.354 272.635C443.354 270.34 442.004 270.071 438.225 268.946C434.625 267.821 433.185 266.382 433.185 263.906C433.185 261.747 434.581 260.171 436.02 259.361C437.37 258.595 439.17 258.146 441.33 258.146C443.715 258.146 445.29 258.731 445.739 258.957C445.965 260.622 446.1 262.242 446.235 263.906C445.559 264.042 444.705 264.177 443.94 264.266L443.354 261.431C443.264 261.206 443.174 261.026 442.995 260.891C442.455 260.486 441.466 260.26 440.386 260.26C439.216 260.26 438.226 260.576 437.55 261.071C436.966 261.521 436.47 262.287 436.47 263.457C436.47 265.257 437.325 265.571 440.925 266.651C444.165 267.596 446.64 268.631 446.64 272.051C446.64 274.03 445.695 275.696 443.76 276.821C442.545 277.586 440.521 277.946 438.361 277.946C435.931 277.946 433.951 277.495 432.916 277.09C432.736 275.335 432.512 273.625 432.287 271.87C433.006 271.735 433.861 271.557 434.582 271.467L435.21 274.391Z" fill="black"/>
<path d="M460.59 275.562L463.155 275.426C463.245 275.426 463.335 275.336 463.335 275.246C463.335 267.326 463.335 256.887 463.335 249.013L459.915 248.967C459.87 248.337 459.915 247.617 459.96 247.032C461.715 246.852 466.395 245.997 466.755 245.997C466.845 245.997 466.89 246.042 466.89 246.178C466.89 250.363 466.8 255.852 466.755 260.802L466.935 260.847C471.705 258.283 472.605 258.147 474.27 258.147C476.52 258.147 478.32 259.722 479.31 261.387C479.804 262.287 479.939 263.457 479.939 264.717C479.939 268.137 479.894 271.916 479.849 275.426L482.82 275.517C482.82 276.147 482.775 276.867 482.775 277.496C481.379 277.496 479.67 277.496 478.14 277.496C476.7 277.496 474.99 277.541 473.595 277.541C473.595 276.911 473.595 276.236 473.64 275.562L476.294 275.426C476.384 275.426 476.429 275.336 476.429 275.246C476.474 272.771 476.474 269.486 476.474 267.012C476.474 264.807 476.429 263.366 475.8 262.287C475.034 261.071 473.775 260.847 472.964 260.847C471.12 260.847 468.645 262.017 466.8 263.367C466.755 266.878 466.71 272.053 466.71 275.427L470.175 275.518C470.175 276.148 470.13 276.868 470.13 277.497C468.645 277.497 466.755 277.497 464.909 277.497C463.604 277.497 461.895 277.542 460.545 277.542C460.545 276.866 460.545 276.192 460.59 275.562Z" fill="black"/>
<path d="M495.646 261.161C495.646 260.576 495.691 259.856 495.691 259.271C497.58 259.046 502.17 258.146 502.531 258.146C502.621 258.146 502.62 258.19 502.62 258.281C502.62 263.275 502.531 270.611 502.531 275.426L505.68 275.516C505.68 276.191 505.68 276.866 505.634 277.495C504.195 277.495 502.305 277.495 500.64 277.495C499.111 277.495 497.445 277.541 495.915 277.541C495.915 276.866 495.914 276.191 495.959 275.562L498.974 275.426C499.065 275.426 499.156 275.336 499.156 275.201V261.297L495.646 261.161ZM502.89 251.443C502.89 252.838 501.9 253.828 500.505 253.828C499.11 253.828 498.12 252.748 498.12 251.488C498.12 250.228 499.019 249.103 500.64 249.103C502.35 249.103 502.935 250.452 502.89 251.443Z" fill="black"/>
<path d="M518.999 275.607L521.609 275.47C521.7 275.47 521.745 275.38 521.745 275.335C521.745 270.881 521.745 265.526 521.745 261.207L518.46 261.161C518.46 260.576 518.505 259.901 518.505 259.316C520.305 259.046 524.489 258.146 524.759 258.146C524.804 258.146 524.85 258.19 524.85 258.281C524.895 259.451 524.94 261.927 525.03 264.311H525.211C527.775 259.316 529.395 258.146 531.285 258.146C532.32 258.146 533.355 258.372 533.984 258.641C533.984 259.586 533.265 261.52 532.724 261.97C532.32 261.88 531.24 261.61 530.429 261.61C529.98 261.61 529.53 261.791 528.9 262.286C528.045 262.961 527.099 264.266 525.929 266.472C525.435 267.507 525.21 269.125 525.165 270.611C525.165 272.186 525.12 273.987 525.12 275.426L529.393 275.562C529.393 276.147 529.393 276.866 529.303 277.496C527.684 277.496 525.569 277.496 523.588 277.496C522.059 277.496 520.349 277.542 518.908 277.542C518.909 276.911 518.954 276.192 518.999 275.607Z" fill="black"/>
<path d="M551.353 276.732C550.138 275.652 550.093 274.617 550.093 273.267C550.093 270.927 550.138 267.282 550.183 266.157C550.183 264.762 550.228 262.107 550.228 260.937C549.329 260.937 548.159 260.937 547.124 260.937C547.124 260.217 547.124 259.408 547.169 258.732C548.159 258.732 549.149 258.687 550.049 258.642C550.184 258.642 550.32 258.507 550.364 258.328C550.364 257.068 550.454 255.493 550.499 254.188C551.669 253.422 553.559 252.658 553.694 252.658C553.784 252.658 553.829 252.703 553.829 252.793C553.784 254.323 553.739 256.753 553.739 258.643C556.034 258.643 558.509 258.643 560.803 258.598C560.803 259.409 560.713 260.263 560.668 260.938C558.598 260.938 556.213 260.938 553.647 260.938C553.647 261.613 553.647 264.539 553.647 265.978C553.602 267.823 553.602 270.523 553.602 272.728C553.602 274.663 554.953 275.518 556.527 275.518C557.562 275.518 559.272 275.203 560.847 274.797C560.982 275.427 561.072 276.148 561.161 276.777C559.046 277.542 556.481 277.902 554.862 277.902C553.874 277.901 552.569 277.857 551.353 276.732Z" fill="black"/>
<path d="M577.183 274.391C577.273 274.616 577.318 274.751 577.543 274.932C578.217 275.426 579.433 275.875 580.647 275.875C581.952 275.875 583.077 275.786 584.022 275.156C584.697 274.661 585.327 273.895 585.327 272.635C585.327 270.34 583.976 270.071 580.197 268.946C576.597 267.821 575.158 266.382 575.158 263.906C575.158 261.747 576.553 260.171 577.992 259.361C579.342 258.595 581.142 258.146 583.303 258.146C585.688 258.146 587.262 258.731 587.712 258.957C587.938 260.622 588.072 262.242 588.207 263.906C587.532 264.042 586.678 264.177 585.912 264.266L585.327 261.431C585.237 261.206 585.146 261.026 584.967 260.891C584.428 260.486 583.438 260.26 582.358 260.26C581.188 260.26 580.198 260.576 579.523 261.071C578.938 261.521 578.443 262.287 578.443 263.457C578.443 265.257 579.297 265.571 582.898 266.651C586.137 267.596 588.612 268.631 588.612 272.051C588.612 274.03 587.668 275.696 585.733 276.821C584.518 277.586 582.493 277.946 580.333 277.946C577.903 277.946 575.923 277.495 574.889 277.09C574.708 275.335 574.484 273.625 574.259 271.87C574.979 271.735 575.833 271.557 576.554 271.467L577.183 274.391Z" fill="black"/>
<path d="M609.538 275.426C609.538 276.687 608.638 277.902 607.153 277.902C605.622 277.902 604.588 276.867 604.588 275.426C604.588 274.301 605.398 272.906 607.108 272.906C608.907 272.906 609.538 274.392 609.538 275.426Z" fill="black"/>
<path d="M635.953 258.146C637.889 258.146 639.418 258.642 640.094 259.092C640.094 259.767 639.149 261.521 638.608 261.881C638.204 261.746 636.403 260.756 634.558 260.756C632.802 260.756 631.678 261.342 630.734 262.422C629.7 263.547 628.665 265.526 628.665 268.317C628.665 270.837 629.158 272.457 630.328 273.807C631.363 275.112 632.984 275.516 634.38 275.516C636.134 275.516 638.429 274.751 639.914 274.166C640.14 274.751 640.319 275.471 640.409 276.102C638.024 277.317 635.234 277.947 633.3 277.947C628.935 277.947 625.02 274.886 625.02 269.218C625.018 262.736 629.563 258.146 635.953 258.146Z" fill="black"/>
<path d="M656.562 275.831C654.583 274.031 653.547 271.602 653.547 268.451C653.547 265.257 654.762 262.332 657.371 260.217C659.081 258.822 661.376 258.146 663.536 258.146C665.65 258.146 667.496 258.642 669.115 259.857C671.365 261.567 672.625 264.086 672.625 267.641C672.625 271.241 671.141 274.211 668.756 276.057C667.046 277.407 665.156 277.947 662.772 277.947C660.207 277.946 658.048 277.181 656.562 275.831ZM666.821 274.482C668.307 272.862 668.846 270.836 668.846 267.822C668.846 265.302 668.307 263.232 667.046 261.838C665.921 260.623 664.751 260.172 663.221 260.172C661.961 260.172 660.477 260.623 659.442 261.703C658.003 263.187 657.372 265.348 657.372 268.093C657.372 271.018 658.003 272.997 659.442 274.483C660.342 275.427 661.602 275.967 663.042 275.967C664.436 275.966 665.787 275.562 666.821 274.482Z" fill="black"/>
<path d="M686.218 261.207C686.218 260.622 686.263 259.9 686.263 259.361C688.063 259.09 692.158 258.191 692.473 258.191C692.563 258.191 692.608 258.237 692.608 258.327C692.744 259.092 692.879 259.946 692.968 260.756L693.148 260.802C697.423 258.282 698.368 258.146 699.898 258.146C702.418 258.146 704.038 260.126 704.712 261.162H704.847C709.167 258.417 710.247 258.238 712.046 258.238C714.567 258.238 716.097 260.037 716.817 261.162C717.446 262.196 717.76 263.322 717.76 264.583C717.76 267.912 717.67 271.962 717.625 275.427L720.506 275.517C720.506 276.147 720.506 276.867 720.461 277.496C719.111 277.496 717.356 277.496 715.826 277.496C714.295 277.496 712.81 277.542 711.551 277.542C711.551 276.912 711.551 276.192 711.596 275.562L714.16 275.427C714.25 275.427 714.295 275.291 714.295 275.246C714.295 272.231 714.34 268.768 714.34 266.338C714.34 264.808 714.25 263.593 713.801 262.603C713.17 261.298 712 260.848 710.74 260.848C709.076 260.848 706.961 262.018 705.386 263.188C705.432 266.608 705.341 271.557 705.341 275.381L708.401 275.517C708.401 276.147 708.401 276.867 708.356 277.496C706.872 277.496 705.071 277.496 703.362 277.496C701.967 277.496 700.436 277.542 699.266 277.542C699.266 276.867 699.266 276.192 699.311 275.562L701.832 275.381C701.922 275.381 701.968 275.292 701.968 275.202C702.013 272.232 702.013 268.811 702.013 266.021C702.013 264.311 702.013 263.276 701.472 262.287C700.752 261.026 699.673 260.758 698.638 260.758C697.153 260.758 694.858 261.793 693.148 263.188C693.058 267.013 693.058 271.557 693.013 275.381L696.208 275.517C696.208 276.147 696.208 276.867 696.162 277.496C694.722 277.496 692.923 277.496 691.212 277.496C689.817 277.496 688.108 277.542 686.803 277.542C686.803 276.867 686.848 276.146 686.848 275.517L689.503 275.381C689.593 275.381 689.683 275.292 689.683 275.202L689.638 261.297L686.218 261.207Z" fill="black"/>
</svg>
